<svg width="12" height="12" viewBox="0 0 12 12" fill="none" xmlns="http://www.w3.org/2000/svg">
<g clip-path="url(#clip0_1721_1870)">
<path d="M7.18003 2.03933L7.64347 1.57589C8.41132 0.808037 9.65626 0.808037 10.4241 1.57589C11.192 2.34374 11.192 3.58868 10.4241 4.35653L9.96067 4.81997M7.18003 2.03933C7.18003 2.03933 7.23796 3.02414 8.10691 3.89309C8.97586 4.76204 9.96067 4.81997 9.96067 4.81997M7.18003 2.03933L2.91941 6.29995C2.63083 6.58853 2.48654 6.73282 2.36245 6.89192C2.21607 7.07959 2.09057 7.28265 1.98817 7.49751C1.90137 7.67965 1.83684 7.87324 1.70778 8.26041L1.1609 9.90104M9.96067 4.81997L5.70005 9.08059C5.41147 9.36917 5.26718 9.51346 5.10808 9.63755C4.92041 9.78393 4.71735 9.90943 4.50249 10.0118C4.32035 10.0986 4.12676 10.1632 3.73959 10.2922L2.09896 10.8391M2.09896 10.8391L1.69792 10.9728C1.50739 11.0363 1.29733 10.9867 1.15532 10.8447C1.0133 10.7027 0.963714 10.4926 1.02722 10.3021L1.1609 9.90104M2.09896 10.8391L1.1609 9.90104" stroke="#C7C7C7"/>
</g>
<defs>
<clipPath id="clip0_1721_1870">
<rect width="12" height="12" fill="white"/>
</clipPath>
</defs>
</svg>
